# xmcd
#
# Track frame offsets: 
#        215
#        17855
#        38540
#        57450
#        80052
#        99770
#        119655
#        140185
#
# Disc length: 2107 seconds
#
# Revision: 0
# Processed by: cddbd v1.5.2PL0 Copyright (c) Steve Scherf et al.
# Submitted via: ExactAudioCopyFreeDBPlugin 1.0
#
DISCID=6c083908
DTITLE=Roshell Anderson - Stepping Out
DYEAR=1990
DGENRE=
TTITLE0=Twilight State
TTITLE1=Bodies Talking
TTITLE2=Peace
TTITLE3=Victim Of A System
TTITLE4=Better Love
TTITLE5=Passionate Transition
TTITLE6=Stepping Out
TTITLE7=Broken Heart
EXTD=
EXTT0=
EXTT1=
EXTT2=
EXTT3=
EXTT4=
EXTT5=
EXTT6=
EXTT7=
PLAYORDER=
